<?xml version="1.0" standalone="no"?>
<!DOCTYPE svg PUBLIC "-//W3C//DTD SVG 20010904//EN"
 "http://www.w3.org/TR/2001/REC-SVG-20010904/DTD/svg10.dtd">
<svg version="1.0" xmlns="http://www.w3.org/2000/svg"
 width="720.000000pt" height="720.000000pt" viewBox="0 0 720.000000 720.000000"
 preserveAspectRatio="xMidYMid meet">
<metadata>
Created by potrace 1.11, written by Peter Selinger 2001-2013
</metadata>
<g transform="translate(0.000000,720.000000) scale(0.100000,-0.100000)"
fill="#000000" stroke="none">
<path d="M3465 7120 c-77 -45 -147 -85 -155 -90 -8 -5 -53 -31 -100 -58 -47
-27 -125 -73 -175 -101 -49 -29 -108 -63 -130 -76 -22 -12 -94 -53 -160 -92
-66 -38 -212 -122 -325 -188 -113 -65 -248 -143 -300 -173 -52 -30 -135 -78
-185 -107 -165 -95 -370 -213 -402 -231 -17 -11 -94 -55 -170 -99 -76 -44
-147 -85 -158 -92 -11 -7 -27 -15 -35 -20 -8 -4 -55 -31 -104 -60 -49 -29 -90
-53 -91 -53 -2 0 -54 -30 -117 -67 -62 -37 -115 -68 -118 -68 -3 0 -23 -12
-45 -26 -22 -15 -58 -36 -80 -47 -22 -12 -58 -32 -80 -45 l-40 -24 -3 -1801
-2 -1800 50 -31 c28 -17 53 -31 57 -31 3 0 14 -6 22 -14 9 -7 45 -29 81 -49
36 -19 133 -74 215 -122 150 -88 186 -109 247 -143 69 -40 234 -136 263 -153
17 -11 37 -22 45 -26 8 -4 47 -26 85 -48 39 -23 90 -53 115 -67 25 -14 113
-65 195 -113 83 -48 165 -95 183 -104 17 -8 32 -19 32 -23 0 -4 5 -8 11 -8 6
0 65 -32 132 -72 67 -39 136 -78 152 -86 17 -8 37 -20 45 -27 8 -7 40 -26 70
-42 93 -51 153 -85 192 -110 21 -12 42 -23 48 -23 5 0 10 -4 10 -10 0 -5 4
-10 9 -10 5 0 75 -39 157 -86 82 -48 165 -95 184 -106 19 -11 94 -54 165 -96
72 -41 145 -83 163 -94 17 -10 49 -28 70 -40 20 -12 55 -32 78 -45 l40 -23
105 61 c57 33 111 64 119 69 8 5 47 27 85 49 39 23 93 54 120 71 28 16 57 33
65 37 8 4 38 20 65 36 43 26 321 186 410 237 17 9 65 38 108 64 43 25 80 46
82 46 2 0 60 34 130 75 69 41 131 75 136 75 5 0 9 5 9 10 0 6 5 10 11 10 6 0
49 23 97 52 48 28 143 84 212 123 147 84 173 99 249 143 31 19 74 44 96 57 22
12 58 32 80 45 22 13 65 36 95 53 30 16 61 34 68 40 7 5 25 17 41 26 114 65
269 154 281 161 46 29 222 130 225 130 2 0 53 29 114 65 l111 66 0 1802 0
1803 -27 11 c-16 7 -59 31 -98 54 -38 23 -85 50 -104 61 -18 10 -130 76 -250
145 -119 69 -234 136 -256 149 -22 12 -182 104 -355 204 -173 101 -334 193
-357 206 -82 47 -268 154 -283 164 -8 6 -26 15 -40 22 -14 7 -32 17 -40 24 -8
6 -35 23 -60 36 -25 14 -136 77 -245 140 -110 64 -222 128 -250 143 -27 15
-62 36 -77 46 -14 11 -29 19 -33 19 -3 0 -26 14 -50 30 -24 17 -46 30 -50 30
-6 0 -70 37 -340 196 -55 32 -102 59 -105 59 -3 0 -24 13 -47 28 -24 15 -44
27 -46 27 -1 0 -65 -36 -142 -80z"/>
</g>
</svg>
